<svg xmlns="http://www.w3.org/2000/svg" version="1.1" xmlns:xlink="http://www.w3.org/1999/xlink" xmlns:svgjs="http://svgjs.dev/svgjs" width="1000" height="1000" viewBox="0 0 1000 1000"><rect width="1000" height="1000" fill="#ffffff"></rect><g transform="matrix(0.7,0,0,0.7,149.57575757575756,446.9712351631784)"><svg viewBox="0 0 396 60" data-background-color="#c8c8c8" preserveAspectRatio="xMidYMid meet" height="151" width="1000" xmlns="http://www.w3.org/2000/svg" xmlns:xlink="http://www.w3.org/1999/xlink"><g id="tight-bounds" transform="matrix(1,0,0,1,0.2400000000000091,0.10147483641719646)"><svg viewBox="0 0 395.52 59.79705032716562" height="59.79705032716562" width="395.52"><g><svg viewBox="0 0 516.6670328525971 78.11277448896158" height="59.79705032716562" width="395.52"><g><rect width="7.009244393828684" height="78.11277448896158" x="95.78898114508083" y="0" fill="#000000" opacity="1" stroke-width="0" stroke="transparent" fill-opacity="1" class="rect-o-0" data-fill-palette-color="primary" rx="1%" id="o-0" data-palette-color="#6b7280"></rect></g><g transform="matrix(1,0,0,1,121.14703285259716,0.19431038430089842)"><svg viewBox="0 0 395.52 77.72415372035978" height="77.72415372035978" width="395.52"><g id="textblocktransform"><svg viewBox="0 0 395.52 77.72415372035978" height="77.72415372035978" width="395.52" id="textblock"><g><svg viewBox="0 0 395.52 77.72415372035978" height="77.72415372035978" width="395.52"><g transform="matrix(1,0,0,1,0,0)"><svg width="395.52" viewBox="0.75 -35.54999923706055 183.44000244140625 36.04999923706055" height="77.72415372035978" data-palette-color="#6b7280"><path d="M0.75-34.05L0.75-35 15.45-35Q23-35 26.7-32.83 30.4-30.65 30.4-25.05L30.4-25.05Q30.4-18.85 25.9-16.5L25.9-16.5Q21.7-14.35 14.15-14.35L14.15-14.35 13.75-14.35 13.75-0.95 20-0.95 20 0 0.75 0 0.75-0.95 4-0.95 4-34.05 0.75-34.05ZM15.1-34.05L13.75-34.05 13.75-15.3 14.8-15.3Q17.8-15.3 18.95-17.35 20.1-19.4 20.1-24L20.1-24 20.1-26.4Q20.1-30.65 19.03-32.35 17.95-34.05 15.1-34.05L15.1-34.05ZM56.25-15.45L56.25-15.45 56.25-19.15Q56.25-28.3 55.35-30.7L55.35-30.7Q54.35-33.45 52.5-34.1L52.5-34.1Q51.45-34.5 49.95-34.5 48.45-34.5 47.37-34.1 46.3-33.7 45.6-32.7 44.9-31.7 44.47-30.6 44.05-29.5 43.8-27.5L43.8-27.5Q43.5-24.6 43.5-18.95L43.5-18.95 43.5-15.35Q43.5-9.25 43.97-6.68 44.45-4.1 45.15-3L45.15-3Q46.7-0.55 49.95-0.55L49.95-0.55Q53.9-0.55 55.07-3.88 56.25-7.2 56.25-15.45ZM49.85 0.5Q41.5 0.5 37.37-4.03 33.25-8.55 33.25-17.13 33.25-25.7 37.67-30.63 42.1-35.55 50.2-35.55 58.3-35.55 62.42-30.88 66.55-26.2 66.55-17.6 66.55-9 62.37-4.25 58.2 0.5 49.85 0.5ZM104.3-18.1L104.3-18.1Q104.3-7.8 98.5-3.75L98.5-3.75Q93.14 0 83.8 0L83.8 0 69.64 0 69.64-0.95 72.94-0.95 72.94-34.05 69.64-34.05 69.64-35 85.09-35Q94.69-35 99.5-31.08 104.3-27.15 104.3-18.1ZM82.69-34.05L82.69-0.95 84.59-0.95Q89.64-0.95 91.82-4.53 94-8.1 94-16.5L94-16.5 94-19.4Q94-30.65 89.69-32.95L89.69-32.95Q87.64-34.05 83.89-34.05L83.89-34.05 82.69-34.05ZM107.59-34.05L107.59-35 122.84-35 122.84-34.05 120.09-34.05 120.09-0.95 122.84-0.95 122.84 0 107.59 0 107.59-0.95 110.34-0.95 110.34-34.05 107.59-34.05ZM125.14-33.9L125.14-35 151.14-35 151.64-24.6 150.74-24.6Q148.89-30 146.47-31.95 144.04-33.9 139.24-33.9L139.24-33.9 137.84-33.9 137.84-17.65 140.09-17.65Q142.49-17.65 144.09-19.4 145.69-21.15 146.29-24.2L146.29-24.2 147.04-24.2 147.04-9.4 146.19-9.4Q145.39-13.15 143.97-14.75 142.54-16.35 140.09-16.35L140.09-16.35 137.84-16.35 137.84-1.1 144.04-1.1 144.04 0 125.14 0 125.14-1.1 128.09-1.1 128.09-33.9 125.14-33.9ZM165.49-34.2L172.29-18.55 179.39-34.2 174.34-34.2 174.34-35 184.19-35 184.19-34.2 180.89-34.2 173.34-17.5 173.34-0.95 176.39-0.95 176.39 0 160.54 0 160.54-0.95 163.59-0.95 163.59-16.55 155.09-34.2 152.74-34.2 152.74-35 168.74-35 168.74-34.2 165.49-34.2Z" opacity="1" transform="matrix(1,0,0,1,0,0)" fill="#000000" class="wordmark-text-0" data-fill-palette-color="primary" id="text-0"></path></svg></g></svg></g></svg></g></svg></g><g transform="matrix(1,0,0,1,0,0.19431038430089842)"><svg viewBox="0 0 77.44017383139317 77.72415372035978" height="77.72415372035978" width="77.44017383139317"><g><svg xmlns="http://www.w3.org/2000/svg" xmlns:xlink="http://www.w3.org/1999/xlink" version="1.1" x="0" y="0" viewBox="2.994999885559082 2.4110000133514404 73.62699890136719 73.8969955444336" enable-background="new 0 0 80 80" xml:space="preserve" height="77.72415372035978" width="77.44017383139317" class="icon-icon-0" data-fill-palette-color="accent" id="icon-0"><g fill="#97978d" data-fill-palette-color="accent"><path d="M64.622 2.411H14.995c-6.627 0-12 5.373-12 12v49.897c0 6.627 5.373 12 12 12h49.627c6.627 0 12-5.373 12-12V14.411C76.622 7.783 71.249 2.411 64.622 2.411zM24.125 63.906V15.093L61 39.168 24.125 63.906z" fill="#000000" data-fill-palette-color="accent"></path></g></svg></g></svg></g></svg></g><defs></defs></svg><rect width="395.52" height="59.79705032716562" fill="none" stroke="none" visibility="hidden"></rect></g></svg></g></svg>